<?xml version="1.0" encoding="utf-8"?>
<!-- Generator: Adobe Illustrator 27.5.0, SVG Export Plug-In . SVG Version: 6.00 Build 0)  -->
<svg
  version="1.1"
  xmlns="http://www.w3.org/2000/svg"
  xmlns:xlink="http://www.w3.org/1999/xlink"
  x="0px"
  y="0px"
  width="400px"
  height="400px"
  viewBox="0 0 460 435"
  preserveAspectRatio="xMidYMid meet"
  style="enable-background:new 0 100 500 500;"
  xml:space="preserve"
>
<g id="objects">
	<g>
		<g>
			<polygon style="fill:#3F0F2F;" points="290.44,324.976 285.471,326.481 310.73,409.934 315.699,409.934 			"/>
			<polygon style="fill:#3F0F2F;" points="243.988,409.934 248.957,409.934 274.216,326.481 269.247,324.976 			"/>
			<rect x="277.248" y="324.948" style="fill:#3F0F2F;" width="5.192" height="84.986"/>
		</g>
		<path style="fill:#3F0F2F;" d="M301.245,327.967h-42.804c-1.141,0-2.066-0.925-2.066-2.066v-1.904
			c0-1.141,0.925-2.066,2.066-2.066h42.804c1.141,0,2.066,0.925,2.066,2.066v1.904C303.311,327.042,302.386,327.967,301.245,327.967
			z"/>
		<path style="fill:#6B154A;" d="M320.187,324.007h-71.318v-4.791h75.874v0.235C324.742,321.967,322.703,324.007,320.187,324.007z"
			/>
		<path style="fill:#FFEFE3;" d="M249.91,263.516l-0.176,0.021l-0.374,0.031l-0.81,0.073c0,0,0,0-0.052,0.021
			c-0.021,0-0.052,0.01-0.093,0.031c-0.021,0-0.042,0.01-0.073,0.021c-0.415,0.094-1.63,0.426-5.213,1.392
			c-0.042,0.01-0.094,0.021-0.135,0.031c-5.306,1.381-6.241-1.651-8.556-2.492c-2.336-0.852-3.707,2.284-4.901,1.142
			c-1.204-1.142,0-3.074,0-3.074c-2.056,0.904-3.136,5.41-3.935,5.691c-0.8,0.291-1.257-0.903-1.257-0.903s0.229,1.246-0.851,1.423
			c-0.395,0.062-0.779-0.104-1.101-0.353c-0.104,0.135-0.249,0.27-0.436,0.405c-1.256,0.852-3.302-0.851-3.302-0.851
			s-2.399,0.571-2.108-2.17c0.28-2.731,2.274-2.565,2.274-2.565c0.966-2.388,3.302-2.897,3.302-2.897
			c2.222-3.655,5.535-3.042,5.535-3.042c3.126-2.066,11.516,2.139,11.516,2.139c2.471-0.633,4.87-1.703,6.999-2.887h0.01
			C253.399,256.86,249.91,263.516,249.91,263.516z"/>
		<path style="fill:#FFEFE3;" d="M300.657,181.409c-2.762,8.421-9.18,25.368-15.877,24.776c-6.968-0.613-8.619-16.49-9.003-23.312
			c1.464-0.208,2.606-0.509,3.157-0.987c1.194-1.038,1.163-4.735,0.841-8.079c-0.145-1.547-0.353-3.022-0.53-4.112
			c-2.793,0.343-5.69,0.239-8.172-0.81c-4.777-2.004-5.514-14.507-5.4-23.665c0.031-2.596,0.135-4.932,0.239-6.677
			c0.031-0.499,0.062-0.955,0.083-1.35h22.533c0,6.854,6.365,7.965,6.365,7.965c0.021-0.042,0.031-0.083,0.052-0.125
			c1.329-3.261,5.96-3.531,7.643-0.426c2.845,5.265-2.222,11.402-3.707,11.537c-1.755,0.166-3.821,1.599-3.821,1.599
			c-0.509,4.247-0.644,7.747-0.53,10.602C295.008,179.291,299.255,181.119,300.657,181.409z"/>
		<g>
			<path style="fill:#6B154A;" d="M323.4,254.09l-5.59,1.14c-1.17-5.66-1.82-12.63-0.93-24.24L323.4,254.09z"/>
			<path style="fill:#6B154A;" d="M372.08,211.97l-15.86,66.16h-33.39c-0.35-3.25-0.82-5.99-1.35-8.44h14.03
				c0,0,10.98-0.16,10.98-8.28c0-8.04-12.18-41.86-19.23-68.82h29.53C366.95,192.59,374.45,202.09,372.08,211.97z"/>
			<path style="fill:#FEB4EA;" d="M323.4,254.09l-5.59,1.14c-1.17-5.66-1.82-12.63-0.93-24.24L323.4,254.09z"/>
			<path style="fill:#FEB4EA;" d="M363.34,211.97l-15.86,66.16h-24.65c-0.35-3.25-0.82-5.99-1.35-8.44h14.03
				c0,0,10.98-0.16,10.98-8.28c0-8.04-12.18-41.86-19.23-68.82h20.79C358.21,192.59,365.71,202.09,363.34,211.97z"/>
		</g>
		<path style="fill:#6D174C;" d="M296.732,153.192c-0.013,0-0.027-0.001-0.041-0.002c-0.286-0.022-0.5-0.271-0.479-0.557
			c0.381-5.021,3.154-7.548,3.271-7.653c0.214-0.192,0.541-0.171,0.732,0.041c0.191,0.213,0.172,0.541-0.039,0.733
			c-0.026,0.023-2.581,2.376-2.928,6.957C297.228,152.985,297.001,153.192,296.732,153.192z"/>
		<path style="fill:#FFFFFF;" d="M297.875,154.352c0,0.316-0.256,0.572-0.572,0.572s-0.572-0.256-0.572-0.572
			s0.256-0.572,0.572-0.572S297.875,154.036,297.875,154.352z"/>
		<path style="fill:#6D174C;" d="M282.418,148.394c0,0.652-0.529,1.18-1.181,1.18c-0.652,0-1.18-0.529-1.18-1.18
			c0-0.652,0.529-1.18,1.18-1.18C281.889,147.214,282.418,147.742,282.418,148.394z"/>
		<path style="fill:#6D174C;" d="M270.736,148.394c0,0.652-0.529,1.18-1.181,1.18c-0.652,0-1.181-0.529-1.181-1.18
			c0-0.652,0.529-1.18,1.181-1.18C270.207,147.214,270.736,147.742,270.736,148.394z"/>
		<path style="fill:#6D174C;" d="M275.944,160.596c-0.245,0-0.486-0.024-0.721-0.072c-1.93-0.396-2.699-2.267-2.73-2.347
			c-0.106-0.265,0.022-0.566,0.287-0.673c0.265-0.108,0.567,0.02,0.676,0.286c0.005,0.014,0.603,1.44,1.984,1.718
			c1.372,0.274,3.142-0.635,5.134-2.628c0.203-0.203,0.531-0.203,0.734,0c0.203,0.203,0.203,0.531,0,0.734
			C279.327,159.597,277.526,160.596,275.944,160.596z"/>
		<path style="fill:#FFC69F;" d="M288.062,153.024c0,1.049-0.851,1.9-1.9,1.9c-1.049,0-1.9-0.851-1.9-1.9c0-1.049,0.85-1.9,1.9-1.9
			C287.211,151.124,288.062,151.974,288.062,153.024z"/>
		<path style="fill:#FFC69F;" d="M270.274,153.024c0,1.049-0.851,1.9-1.9,1.9s-1.9-0.851-1.9-1.9c0-1.049,0.851-1.9,1.9-1.9
			S270.274,151.974,270.274,153.024z"/>
		<path style="fill:#6B154A;" d="M266.576,142.656c-0.101-0.028-0.19-0.095-0.244-0.193c-0.109-0.195-0.04-0.442,0.156-0.551
			c3.404-1.9,6.074,0.119,6.185,0.207c0.177,0.137,0.209,0.391,0.072,0.567c-0.138,0.177-0.391,0.209-0.568,0.073
			c-0.095-0.073-2.371-1.773-5.294-0.14C266.785,142.674,266.676,142.684,266.576,142.656z"/>
		<path style="fill:#6B154A;" d="M279.439,142.656c-0.101-0.028-0.19-0.095-0.244-0.193c-0.109-0.195-0.04-0.442,0.156-0.551
			c3.404-1.9,6.074,0.119,6.185,0.207c0.177,0.137,0.209,0.391,0.072,0.567c-0.137,0.177-0.391,0.209-0.568,0.073
			c-0.095-0.073-2.371-1.773-5.294-0.14C279.648,142.674,279.539,142.684,279.439,142.656z"/>
		<path style="fill:#FFD6BB;" d="M279.775,173.808c-0.145-1.547-0.353-3.022-0.53-4.112l5.016-1.36
			C284.261,168.336,284.52,173.299,279.775,173.808z"/>
		<path style="fill:none;stroke:#000000;stroke-width:1.0384;stroke-miterlimit:10;" d="M323.398,254.087
			c0,0,6.58-4.61,15.572,5.153"/>
		<path style="fill:none;stroke:#000000;stroke-width:1.0384;stroke-miterlimit:10;" d="M255.123,248.708
			c0,0,4.324-2.244,10.421,3.34"/>
		
			<line style="fill:none;stroke:#000000;stroke-width:1.0384;stroke-miterlimit:10;" x1="295.423" y1="260.268" x2="317.812" y2="255.229"/>
		<path style="fill:none;stroke:#000000;stroke-width:1.0384;stroke-miterlimit:10;" d="M248.869,304.924
			c3.89,5.578,4.78,14.292,4.78,14.292s1.826-4.383,0.431-11.136"/>
		<path style="fill:none;" d="M317.812,255.229l5.587-1.142l-6.521-23.094C315.994,242.602,316.638,249.57,317.812,255.229z"/>
		<path style="fill:#FE51B9;" d="M327.06,191.81c0,0-3.79-10.76-25.96-10.34c0,0-0.16,0-0.44-0.06
			c-2.76,8.42-9.18,25.37-15.88,24.78c-6.97-0.62-8.62-16.49-9-23.32c-4.76,0.71-12.41,0.97-14.48,3.37
			c-5.45,6.3-6.76,62.47-6.76,62.47s-3.5,3.29-8.37,5.99c7.23,2.16,3.74,8.82,3.74,8.82c4.23-0.41,16.96-1.82,18.55-4.33
			c0,0,2.45,11.29-15.74,14.96c-18.18,3.66-44.77,3.66-47.33,23.73c-2.54,20.07,10.52,35.99,10.52,35.99s1.25,0.72,3.87,1.51
			c2.43,0.74,6.03,1.55,10.9,1.91c1.67,0.13,3.49,0.2,5.46,0.2c8.48,0,13.87-2.75,16.79-4.91c1.88-1.38,2.74-2.52,2.74-2.52
			l-0.27-1.44v-0.01l-1.75-9.39h36.78c0,0,32.97,1.12,32.97-29.14c0-9.25-0.83-15.4-1.92-20.39h14.03c0,0,10.98-0.16,10.98-8.28
			C346.49,253.29,334.07,218.9,327.06,191.81z M317.81,255.23c-1.17-5.66-1.82-12.63-0.93-24.24l6.52,23.1L317.81,255.23z"/>
		<path style="fill:#6B154A;" d="M309.047,143.882c-0.81,7.778-3.489,15.296-6.687,16.625c-5.369,2.222-7.819,7.83-7.819,7.83
			l-0.01,0.01c-0.114-2.856,0.021-6.355,0.53-10.602c0,0,2.066-1.433,3.821-1.599c1.485-0.135,6.552-6.272,3.707-11.537
			c-1.682-3.105-6.314-2.835-7.643,0.426c-0.021,0.042-0.031,0.083-0.052,0.125c0,0-6.365-1.111-6.365-7.965h-22.533
			c-0.021,0.395-0.052,0.851-0.083,1.35c-0.104,1.745-0.208,6.073-0.239,8.669c-5.265-0.748-5.337-6.333-4.901-8.451
			c-1.34-1.443-2.482-4.247-2.482-9.636c0-13.24,14.839-11.848,14.839-11.848s10.249,0,17.383,0c2.025,0,3.489,0.426,4.559,1.038
			c2.679,1.537,2.804,4.237,2.804,4.237s5.971-2.035,9.854,7.03C309.297,133.238,309.598,138.617,309.047,143.882z"/>
		<path style="fill:#7A1E5B;" d="M316.804,136.81c0,0,1.848,7.072-4.631,7.072h-3.126c0.55-5.265,0.249-10.644-1.319-14.299
			c-3.884-9.065-9.854-7.03-9.854-7.03s-0.125-2.7-2.804-4.237c0.592-3.375,2.835-8.754,11.246-8.754
			c12.243,0,15.95,6.687,15.95,16.043C322.266,134.951,316.804,136.81,316.804,136.81z"/>
		<g>
			<path style="fill:#FAF8FF;" d="M268.467,268.147v3.074h-15.545v-3.074c0-1.142-0.924-2.066-2.066-2.066H266.4
				C267.542,266.081,268.467,267.005,268.467,268.147z"/>
			<path style="fill:#FFFFFF;" d="M252.922,268.147v3.074h-50.29v-3.074c0-1.142,0.924-2.066,2.066-2.066h46.157
				C251.998,266.081,252.922,267.005,252.922,268.147z"/>
		</g>
		<path style="fill:#6B154A;" d="M356.222,278.126l-9.19,25.95c-3.209,9.076-11.786,15.14-21.412,15.14h-52.346
			c0,0,13.167-2.222,13.167-18.131c0-15.919,13.001-22.959,26.012-22.959c14.631,0,35.638,0,35.638,0
			C352.951,278.126,356.222,278.126,356.222,278.126z"/>
		<path style="fill:#FEB4EA;" d="M348.091,278.126l-9.19,25.95c-3.209,9.076-11.786,15.14-21.412,15.14h-44.215
			c0,0,13.167-2.222,13.167-18.131c0-15.919,13.001-22.959,26.012-22.959C327.085,278.126,348.091,278.126,348.091,278.126z"/>
		<g>
			<path style="fill:#3F0F2F;" d="M350.38,278.13h-8.57l-46.39,154.3h6.5l15.15-50.39h58.05l15.15,50.39h6.51L350.38,278.13z
				 M319.11,375.28l26.99-89.75l26.98,89.75H319.11z"/>
			<path style="fill:#3F0F2F;" d="M157.11,278.13h-8.56l-46.4,154.3h6.51l15.15-50.39h58.04L197,432.43h6.51L157.11,278.13z
				 M125.84,375.28l26.99-89.75l26.99,89.75H125.84z"/>
		</g>
		<g>
			<path style="fill:#6D174C;" d="M213.494,269.165v2.056H152.83v-2.056c0-1.08,0.872-1.952,1.952-1.952h56.759
				C212.621,267.213,213.494,268.085,213.494,269.165z"/>
			<path style="fill:#6D174C;" d="M126.862,152.949l-2.121,1.001c-1.209,0.57-1.867,1.897-1.589,3.205l16.428,77.425
				c0.283,1.332,1.458,2.284,2.819,2.284H250.85c0.425,0,0.846-0.094,1.23-0.276l2.121-1.001c1.209-0.57,1.867-1.897,1.589-3.205
				l-16.428-77.425c-0.283-1.332-1.458-2.284-2.819-2.284H128.093C127.667,152.673,127.247,152.767,126.862,152.949z"/>
			<path style="fill:#FFFFFF;" d="M247.938,236.863H142.4c-1.361,0-2.537-0.952-2.819-2.284l-16.163-76.176
				c-0.38-1.793,0.987-3.48,2.819-3.48h105.538c1.361,0,2.537,0.952,2.819,2.284l16.163,76.176
				C251.138,235.176,249.77,236.863,247.938,236.863z"/>
			<g>
				<circle style="fill:#FEF25B;" cx="203.197" cy="231.572" r="1.868"/>
				<path style="fill:#FEF25B;" d="M211.691,231.572c0,1.032-0.836,1.868-1.868,1.868c-1.032,0-1.868-0.836-1.868-1.868
					c0-1.032,0.836-1.868,1.868-1.868C210.855,229.704,211.691,230.541,211.691,231.572z"/>
				<path style="fill:#FEF25B;" d="M218.317,231.572c0,1.032-0.836,1.868-1.868,1.868c-1.032,0-1.868-0.836-1.868-1.868
					c0-1.032,0.836-1.868,1.868-1.868C217.48,229.704,218.317,230.541,218.317,231.572z"/>
			</g>
			<rect x="193.67" y="201.617" style="fill:#6D174C;" width="2.098" height="65.596"/>
			<path style="fill:#FAF8FF;" d="M193.67,201.617v65.596h-28.473l14.532-61.117c0.624-2.626,2.97-4.479,5.669-4.479H193.67z"/>
		</g>
		<path style="fill:#FFFFFF;" d="M294.894,144.556h-7.445c-1.132-1.059-2.648-1.713-4.32-1.713c-2.492,0-4.642,1.443-5.67,3.541
			c-0.311-0.218-0.613-0.384-0.914-0.488c-0.343-0.125-0.696-0.176-1.028-0.145c-0.042,0-0.083,0.01-0.125,0.01
			c-0.499,0.073-0.883,0.291-1.163,0.53c-1.059-2.046-3.178-3.448-5.628-3.448c-3.499,0-6.334,2.835-6.334,6.334
			c0,3.489,2.835,6.324,6.334,6.324c3.489,0,6.324-2.835,6.324-6.324c0-0.654-0.094-1.277-0.28-1.859
			c0.156-0.176,0.415-0.426,0.789-0.498c0.031-0.021,0.073-0.031,0.104-0.031c0.28-0.042,0.592,0.031,0.924,0.208
			c0.187,0.093,0.384,0.228,0.592,0.395c-0.166,0.561-0.26,1.163-0.26,1.786c0,3.489,2.845,6.324,6.334,6.324
			c3.489,0,6.334-2.835,6.334-6.324c0-1.329-0.415-2.565-1.111-3.583h6.542V144.556z M268.602,154.463
			c-2.918,0-5.296-2.368-5.296-5.285c0-2.918,2.378-5.296,5.296-5.296s5.285,2.378,5.285,5.296
			C273.887,152.095,271.52,154.463,268.602,154.463z M288.425,149.177c0,2.918-2.378,5.285-5.296,5.285
			c-2.918,0-5.296-2.368-5.296-5.285c0-2.918,2.378-5.296,5.296-5.296C286.047,143.882,288.425,146.259,288.425,149.177z"/>
		<path style="fill:#6D174C;" d="M276.546,145.896c-0.343-0.125-0.696-0.176-1.028-0.145l0.114-1.526
			c0.021-0.291,0.301-0.499,0.561-0.478c0.291,0.021,0.499,0.27,0.478,0.55L276.546,145.896z"/>
		<path style="fill:#6D174C;" d="M278.591,154.92c0,0.291-0.239,0.519-0.519,0.519h-2.731c-0.145,0-0.28-0.052-0.384-0.166
			c-0.093-0.104-0.145-0.249-0.135-0.384l0.613-8.068c0.031-0.021,0.073-0.031,0.104-0.031c0.28-0.042,0.592,0.031,0.924,0.208
			l-0.561,7.404h2.17C278.352,154.4,278.591,154.639,278.591,154.92z"/>
		<path style="fill:#7F2862;" d="M264.874,139.068c-0.108,0-0.208-0.032-0.291-0.088c-1.926-0.923-3.008-2.51-3.217-4.718
			c-0.656-6.989,3.493-12.02,3.671-12.231c0.184-0.219,0.511-0.247,0.731-0.063c0.219,0.184,0.248,0.511,0.064,0.731
			c-0.04,0.048-4.047,4.921-3.432,11.466c0.174,1.841,1.08,3.157,2.692,3.908c0.184,0.085,0.3,0.269,0.3,0.471
			C265.393,138.831,265.161,139.068,264.874,139.068z"/>
		<path style="fill:#FFEFE3;" d="M255.33,401.11h-0.01c-0.04-3.95-0.65-7.77-1.08-10.03c-0.25-1.3-0.45-2.08-0.45-2.08l-23.11-51.71
			c1.67,0.13,3.49,0.2,5.46,0.2c8.48,0,13.87-2.75,16.79-4.91c4.25,28.06,12.54,56.71,12.54,56.71c0.55,0.01,1.08,0.05,1.57,0.13
			C267.04,389.42,268.43,400.43,255.33,401.11z"/>
		<path style="fill:#FFD6BB;" d="M254.24,391.08c-5.79,7.3-9.56,6.4-11.65,4.5c0.96-3.78,1.51-6.6,1.51-6.6l-24.32-53.6
			c2.43,0.74,6.03,1.55,10.9,1.91L253.79,389C253.79,389,253.99,389.78,254.24,391.08z"/>
		<path style="fill:#FFFFFF;" d="M255.331,401.115h-0.01c0.052,3.447-0.353,6.988-1.671,9.677c-0.003,0.009-0.006,0.017-0.01,0.026
			c-0.111,0.559-2.247,10.723-4.352,13.661c-2.17,3.032-2.17,5.898,1.495,7.009c3.573,1.093,21.363-18.098,25.952-30.57
			c0.24-0.653,0.245-1.368,0.035-2.031c-0.788-2.487-3.331-8.496-9.725-9.464C267.044,389.422,268.425,400.429,255.331,401.115z"/>
		<path style="fill:#FAF8FF;" d="M254.238,391.077c-5.785,7.305-9.559,6.404-11.65,4.506c-1.181,4.652-2.987,10.76-5.18,14.888
			c-3.977,7.487-5.047,10.664-4.278,13.852c0.779,3.188,10.332,1.111,20.519-13.53c1.319-2.689,1.724-6.23,1.672-9.678
			C255.281,397.158,254.675,393.337,254.238,391.077z"/>
		<path style="fill:#3F0F2F;" d="M424.74,280.908H75.26c-0.633,0-1.146-0.513-1.146-1.146v-7.399c0-0.633,0.513-1.146,1.146-1.146
			h349.48c0.633,0,1.146,0.513,1.146,1.146v7.399C425.886,280.395,425.373,280.908,424.74,280.908z"/>
		<path style="fill:#6B154A;" d="M268.961,258.089c-0.005,0-0.011,0-0.016,0c-0.287-0.009-0.512-0.249-0.503-0.535
			c0.007-0.202,0.62-20.261-1.136-26.418c-0.292-1.022-0.657-2.043-1.044-3.124c-2.009-5.61-4.51-12.592-0.503-29.267
			c0.067-0.278,0.339-0.452,0.627-0.384c0.279,0.067,0.45,0.347,0.383,0.626c-3.935,16.375-1.492,23.195,0.471,28.675
			c0.393,1.098,0.765,2.134,1.065,3.189c1.8,6.314,1.203,25.905,1.176,26.736C269.471,257.867,269.241,258.089,268.961,258.089z"/>
		<path style="fill:#6B154A;" d="M316.876,231.512c-0.26,0-0.485-0.195-0.515-0.46c-0.707-6.142-3.241-22.501-6.431-24.406
			c-0.246-0.147-0.328-0.465-0.181-0.712c0.148-0.247,0.468-0.326,0.712-0.18c4.21,2.513,6.665,22.866,6.932,25.179
			c0.033,0.285-0.172,0.543-0.456,0.575C316.917,231.511,316.897,231.512,316.876,231.512z"/>
		<path style="fill:#FFEFE3;" d="M295.423,260.268c0,0,3.468,2.826,3.212,8.992h-14.082l-6.535-4.206
			c-0.291-0.187-0.649-0.23-0.976-0.118c-1.073,0.369-3.512,1.3-4.707,2.506c-0.411,0.415-1.116,0.454-1.446-0.027
			c-0.328-0.479-0.328-1.297,0.983-2.651c0,0-4.331,3.757-5.261,3.405s0.378-2.122,0.378-2.122s-1.03,1.719-1.702,1.585
			c-0.672-0.134,0.509-5.446,3.785-8.063c0,0-6.539,5.308-7.48,5.711c-1.055,0.452-3.557-1.814,3.964-6.786
			c7.521-4.972,12.632-3.83,22.508,3.225L295.423,260.268z"/>
	</g>
	<g>
		<g>
			<path style="fill:#FEF25B;" d="M119.59,104.807H68.83c-2.579,0-4.67,2.091-4.67,4.67v31.442c0,2.579,2.091,4.67,4.67,4.67h39.637
				l7.793,6.471l0.466-6.471h2.865c2.579,0,4.67-2.091,4.67-4.67v-31.442C124.26,106.897,122.169,104.807,119.59,104.807z"/>
			<g>
				<path style="fill:#FFFFFF;" d="M83.162,125.47c0,1.332-1.08,2.412-2.412,2.412c-1.332,0-2.412-1.08-2.412-2.412
					c0-1.332,1.08-2.411,2.412-2.411C82.082,123.059,83.162,124.139,83.162,125.47z"/>
				<path style="fill:#FFFFFF;" d="M96.621,125.47c0,1.332-1.08,2.412-2.411,2.412c-1.332,0-2.412-1.08-2.412-2.412
					c0-1.332,1.08-2.411,2.412-2.411C95.542,123.059,96.621,124.139,96.621,125.47z"/>
				<path style="fill:#FFFFFF;" d="M110.081,125.47c0,1.332-1.08,2.412-2.411,2.412s-2.412-1.08-2.412-2.412
					c0-1.332,1.08-2.411,2.412-2.411S110.081,124.139,110.081,125.47z"/>
			</g>
		</g>
		<g>
			<path style="fill:#802BF9;" d="M404.506,127.807h-47.802c-2.962,0-5.363,2.401-5.363,5.363v44.11
				c0,2.962,2.401,5.363,5.363,5.363h36.826v6.937l7.433-6.937h3.544c2.962,0,5.363-2.401,5.363-5.363v-44.11
				C409.869,130.208,407.468,127.807,404.506,127.807z"/>
			<g>
				<circle style="fill:#A773F9;" cx="390.147" cy="132.712" r="1.799"/>
				<circle style="fill:#A773F9;" cx="397.245" cy="132.712" r="1.799"/>
				<path style="fill:#A773F9;" d="M406.141,132.712c0,0.994-0.806,1.799-1.799,1.799c-0.994,0-1.799-0.806-1.799-1.799
					s0.806-1.799,1.799-1.799C405.335,130.913,406.141,131.719,406.141,132.712z"/>
			</g>
			<text transform="matrix(1 0 0 1 356.4801 159.4317)" style="fill:#F8F6FD; font-family:'Quicksand-Bold'; font-size:10.5007px;">&lt;/CODE&gt;</text>
		</g>
		<g>
			<path style="fill:#553F77;" d="M108.559,61.693v65.934c0,2.807,2.276,5.083,5.083,5.083h64.907c0.888,0,1.761,0.233,2.531,0.675
				l13.559,7.786c0.248,0.142,0.556-0.037,0.556-0.322v-8.139V61.693c0-2.807-2.276-5.083-5.083-5.083h-76.471
				C110.835,56.61,108.559,58.886,108.559,61.693z"/>
			<g>
				<path style="fill:#5A91FF;" d="M117.185,67.732h2c0.552,0,1-0.448,1-1s-0.448-1-1-1h-2c-0.552,0-1,0.448-1,1
					S116.633,67.732,117.185,67.732z"/>
				<path style="fill:#362656;" d="M137.185,67.732h20c0.552,0,1-0.448,1-1s-0.448-1-1-1h-20c-0.552,0-1,0.448-1,1
					S136.633,67.732,137.185,67.732z"/>
				<path style="fill:#7859B5;" d="M161.185,67.732h2c0.552,0,1-0.448,1-1s-0.448-1-1-1h-2c-0.552,0-1,0.448-1,1
					S160.633,67.732,161.185,67.732z"/>
				<path style="fill:#7859B5;" d="M181.185,67.732h6.56c0.552,0,1-0.448,1-1s-0.448-1-1-1h-6.56c-0.552,0-1,0.448-1,1
					S180.633,67.732,181.185,67.732z"/>
				<path style="fill:#735F99;" d="M167.185,67.732h10c0.552,0,1-0.448,1-1s-0.448-1-1-1h-10c-0.552,0-1,0.448-1,1
					S166.633,67.732,167.185,67.732z"/>
				<path style="fill:#735F99;" d="M123.185,67.732h10c0.552,0,1-0.448,1-1s-0.448-1-1-1h-10c-0.552,0-1,0.448-1,1
					S122.633,67.732,123.185,67.732z"/>
				<path style="fill:#735F99;" d="M147.185,72.712c0-0.552-0.448-1-1-1h-22c-0.552,0-1,0.448-1,1c0,0.552,0.448,1,1,1h22
					C146.737,73.712,147.185,73.264,147.185,72.712z"/>
				<path style="fill:#FF6498;" d="M120.185,71.712h-3c-0.552,0-1,0.448-1,1c0,0.552,0.448,1,1,1h3c0.552,0,1-0.448,1-1
					C121.185,72.16,120.737,71.712,120.185,71.712z"/>
				<path style="fill:#735F99;" d="M170.185,71.712h-20c-0.552,0-1,0.448-1,1c0,0.552,0.448,1,1,1h20c0.552,0,1-0.448,1-1
					C171.185,72.16,170.737,71.712,170.185,71.712z"/>
				<path style="fill:#7859B5;" d="M177.185,73.712c0.552,0,1-0.448,1-1c0-0.552-0.448-1-1-1h-3c-0.552,0-1,0.448-1,1
					c0,0.552,0.448,1,1,1H177.185z"/>
				<path style="fill:#735F99;" d="M187.745,71.712h-6.56c-0.552,0-1,0.448-1,1c0,0.552,0.448,1,1,1h6.56c0.552,0,1-0.448,1-1
					C188.745,72.16,188.297,71.712,187.745,71.712z"/>
				<path style="fill:#7859B5;" d="M163.185,79.691c0.552,0,1-0.448,1-1c0-0.552-0.448-1-1-1h-2c-0.552,0-1,0.448-1,1
					c0,0.552,0.448,1,1,1H163.185z"/>
				<path style="fill:#FFEE4D;" d="M117.185,79.691h2c0.552,0,1-0.448,1-1c0-0.552-0.448-1-1-1h-2c-0.552,0-1,0.448-1,1
					C116.185,79.243,116.633,79.691,117.185,79.691z"/>
				<path style="fill:#5A91FF;" d="M166.185,78.691c0,0.552,0.448,1,1,1h10c0.552,0,1-0.448,1-1c0-0.552-0.448-1-1-1h-10
					C166.633,77.691,166.185,78.139,166.185,78.691z"/>
				<path style="fill:#5A91FF;" d="M123.185,79.691h10c0.552,0,1-0.448,1-1c0-0.552-0.448-1-1-1h-10c-0.552,0-1,0.448-1,1
					C122.185,79.243,122.633,79.691,123.185,79.691z"/>
				<path style="fill:#5A91FF;" d="M187.745,77.691h-6.56c-0.552,0-1,0.448-1,1c0,0.552,0.448,1,1,1h6.56c0.552,0,1-0.448,1-1
					C188.745,78.139,188.297,77.691,187.745,77.691z"/>
				<path style="fill:#7859B5;" d="M137.185,79.691h20c0.552,0,1-0.448,1-1c0-0.552-0.448-1-1-1h-20c-0.552,0-1,0.448-1,1
					C136.185,79.243,136.633,79.691,137.185,79.691z"/>
				<path style="fill:#735F99;" d="M187.745,83.671h-6.56c-0.552,0-1,0.448-1,1c0,0.552,0.448,1,1,1h6.56c0.552,0,1-0.448,1-1
					C188.745,84.119,188.297,83.671,187.745,83.671z"/>
				<path style="fill:#362656;" d="M177.185,83.671h-3c-0.552,0-1,0.448-1,1c0,0.552,0.448,1,1,1h3c0.552,0,1-0.448,1-1
					C178.185,84.119,177.737,83.671,177.185,83.671z"/>
				<path style="fill:#735F99;" d="M171.185,84.671c0-0.552-0.448-1-1-1h-20c-0.552,0-1,0.448-1,1c0,0.552,0.448,1,1,1h20
					C170.737,85.671,171.185,85.224,171.185,84.671z"/>
				<path style="fill:#735F99;" d="M123.185,84.671c0,0.552,0.448,1,1,1h22c0.552,0,1-0.448,1-1c0-0.552-0.448-1-1-1h-22
					C123.633,83.671,123.185,84.119,123.185,84.671z"/>
				<path style="fill:#5A91FF;" d="M120.185,83.671h-3c-0.552,0-1,0.448-1,1c0,0.552,0.448,1,1,1h3c0.552,0,1-0.448,1-1
					C121.185,84.119,120.737,83.671,120.185,83.671z"/>
				<path style="fill:#5A91FF;" d="M187.745,89.651h-2.56c-0.552,0-1,0.448-1,1c0,0.552,0.448,1,1,1h2.56c0.552,0,1-0.448,1-1
					C188.745,90.099,188.297,89.651,187.745,89.651z"/>
				<path style="fill:#5A91FF;" d="M166.185,90.651c0-0.552-0.448-1-1-1h-2c-0.552,0-1,0.448-1,1c0,0.552,0.448,1,1,1h2
					C165.737,91.651,166.185,91.203,166.185,90.651z"/>
				<path style="fill:#735F99;" d="M159.185,89.651h-20c-0.552,0-1,0.448-1,1c0,0.552,0.448,1,1,1h20c0.552,0,1-0.448,1-1
					C160.185,90.099,159.737,89.651,159.185,89.651z"/>
				<path style="fill:#735F99;" d="M182.185,90.651c0-0.552-0.448-1-1-1h-12c-0.552,0-1,0.448-1,1c0,0.552,0.448,1,1,1h12
					C181.737,91.651,182.185,91.203,182.185,90.651z"/>
				<path style="fill:#7859B5;" d="M123.185,91.651h12c0.552,0,1-0.448,1-1c0-0.552-0.448-1-1-1h-12c-0.552,0-1,0.448-1,1
					C122.185,91.203,122.633,91.651,123.185,91.651z"/>
				<path style="fill:#FF6498;" d="M117.185,91.651h2c0.552,0,1-0.448,1-1c0-0.552-0.448-1-1-1h-2c-0.552,0-1,0.448-1,1
					C116.185,91.203,116.633,91.651,117.185,91.651z"/>
				<path style="fill:#FFEE4D;" d="M117.185,97.63h2c0.552,0,1-0.448,1-1c0-0.552-0.448-1-1-1h-2c-0.552,0-1,0.448-1,1
					C116.185,97.183,116.633,97.63,117.185,97.63z"/>
				<path style="fill:#362656;" d="M123.185,97.63h10c0.552,0,1-0.448,1-1c0-0.552-0.448-1-1-1h-10c-0.552,0-1,0.448-1,1
					C122.185,97.183,122.633,97.63,123.185,97.63z"/>
				<path style="fill:#735F99;" d="M177.185,95.63h-10c-0.552,0-1,0.448-1,1c0,0.552,0.448,1,1,1h10c0.552,0,1-0.448,1-1
					C178.185,96.078,177.737,95.63,177.185,95.63z"/>
				<path style="fill:#735F99;" d="M187.745,95.63h-6.56c-0.552,0-1,0.448-1,1c0,0.552,0.448,1,1,1h6.56c0.552,0,1-0.448,1-1
					C188.745,96.078,188.297,95.63,187.745,95.63z"/>
				<path style="fill:#5A91FF;" d="M161.185,97.63h2c0.552,0,1-0.448,1-1c0-0.552-0.448-1-1-1h-2c-0.552,0-1,0.448-1,1
					C160.185,97.183,160.633,97.63,161.185,97.63z"/>
				<path style="fill:#735F99;" d="M137.185,97.63h20c0.552,0,1-0.448,1-1c0-0.552-0.448-1-1-1h-20c-0.552,0-1,0.448-1,1
					C136.185,97.183,136.633,97.63,137.185,97.63z"/>
				<path style="fill:#735F99;" d="M123.185,102.61c0,0.552,0.448,1,1,1h22c0.552,0,1-0.448,1-1c0-0.552-0.448-1-1-1h-22
					C123.633,101.61,123.185,102.058,123.185,102.61z"/>
				<path style="fill:#FF6498;" d="M120.185,101.61h-3c-0.552,0-1,0.448-1,1c0,0.552,0.448,1,1,1h3c0.552,0,1-0.448,1-1
					C121.185,102.058,120.737,101.61,120.185,101.61z"/>
				<path style="fill:#735F99;" d="M171.185,102.61c0-0.552-0.448-1-1-1h-20c-0.552,0-1,0.448-1,1c0,0.552,0.448,1,1,1h20
					C170.737,103.61,171.185,103.162,171.185,102.61z"/>
				<path style="fill:#362656;" d="M177.185,103.61c0.552,0,1-0.448,1-1c0-0.552-0.448-1-1-1h-3c-0.552,0-1,0.448-1,1
					c0,0.552,0.448,1,1,1H177.185z"/>
				<path style="fill:#735F99;" d="M187.745,101.61h-6.56c-0.552,0-1,0.448-1,1c0,0.552,0.448,1,1,1h6.56c0.552,0,1-0.448,1-1
					C188.745,102.058,188.297,101.61,187.745,101.61z"/>
				<path style="fill:#7859B5;" d="M164.185,108.59c0-0.552-0.448-1-1-1h-2c-0.552,0-1,0.448-1,1c0,0.552,0.448,1,1,1h2
					C163.737,109.59,164.185,109.142,164.185,108.59z"/>
				<path style="fill:#362656;" d="M187.745,107.59h-6.56c-0.552,0-1,0.448-1,1c0,0.552,0.448,1,1,1h6.56c0.552,0,1-0.448,1-1
					C188.745,108.037,188.297,107.59,187.745,107.59z"/>
				<path style="fill:#5A91FF;" d="M137.185,109.59h20c0.552,0,1-0.448,1-1c0-0.552-0.448-1-1-1h-20c-0.552,0-1,0.448-1,1
					C136.185,109.142,136.633,109.59,137.185,109.59z"/>
				<path style="fill:#735F99;" d="M123.185,109.59h10c0.552,0,1-0.448,1-1c0-0.552-0.448-1-1-1h-10c-0.552,0-1,0.448-1,1
					C122.185,109.142,122.633,109.59,123.185,109.59z"/>
				<path style="fill:#FFEE4D;" d="M117.185,109.59h2c0.552,0,1-0.448,1-1c0-0.552-0.448-1-1-1h-2c-0.552,0-1,0.448-1,1
					C116.185,109.142,116.633,109.59,117.185,109.59z"/>
				<path style="fill:#7859B5;" d="M167.185,109.59h10c0.552,0,1-0.448,1-1c0-0.552-0.448-1-1-1h-10c-0.552,0-1,0.448-1,1
					C166.185,109.142,166.633,109.59,167.185,109.59z"/>
				<path style="fill:#7859B5;" d="M135.185,115.569c0.552,0,1-0.448,1-1c0-0.552-0.448-1-1-1h-12c-0.552,0-1,0.448-1,1
					c0,0.552,0.448,1,1,1H135.185z"/>
				<path style="fill:#7859B5;" d="M187.745,113.569h-2.56c-0.552,0-1,0.448-1,1c0,0.552,0.448,1,1,1h2.56c0.552,0,1-0.448,1-1
					C188.745,114.017,188.297,113.569,187.745,113.569z"/>
				<path style="fill:#5A91FF;" d="M163.185,115.569h2c0.552,0,1-0.448,1-1c0-0.552-0.448-1-1-1h-2c-0.552,0-1,0.448-1,1
					C162.185,115.121,162.633,115.569,163.185,115.569z"/>
				<path style="fill:#735F99;" d="M139.185,115.569h20c0.552,0,1-0.448,1-1c0-0.552-0.448-1-1-1h-20c-0.552,0-1,0.448-1,1
					C138.185,115.121,138.633,115.569,139.185,115.569z"/>
				<path style="fill:#FF6498;" d="M117.185,115.569h2c0.552,0,1-0.448,1-1c0-0.552-0.448-1-1-1h-2c-0.552,0-1,0.448-1,1
					C116.185,115.121,116.633,115.569,117.185,115.569z"/>
				<path style="fill:#735F99;" d="M169.185,115.569h12c0.552,0,1-0.448,1-1c0-0.552-0.448-1-1-1h-12c-0.552,0-1,0.448-1,1
					C168.185,115.121,168.633,115.569,169.185,115.569z"/>
				<path style="fill:#7859B5;" d="M187.745,119.549h-6.56c-0.552,0-1,0.448-1,1c0,0.552,0.448,1,1,1h6.56c0.552,0,1-0.448,1-1
					C188.745,119.996,188.297,119.549,187.745,119.549z"/>
				<path style="fill:#5A91FF;" d="M177.185,119.549h-3c-0.552,0-1,0.448-1,1c0,0.552,0.448,1,1,1h3c0.552,0,1-0.448,1-1
					C178.185,119.996,177.737,119.549,177.185,119.549z"/>
				<path style="fill:#362656;" d="M146.185,119.549h-22c-0.552,0-1,0.448-1,1c0,0.552,0.448,1,1,1h22c0.552,0,1-0.448,1-1
					C147.185,119.996,146.737,119.549,146.185,119.549z"/>
				<path style="fill:#735F99;" d="M170.185,119.549h-20c-0.552,0-1,0.448-1,1c0,0.552,0.448,1,1,1h20c0.552,0,1-0.448,1-1
					C171.185,119.996,170.737,119.549,170.185,119.549z"/>
				<path style="fill:#5A91FF;" d="M120.185,119.549h-3c-0.552,0-1,0.448-1,1c0,0.552,0.448,1,1,1h3c0.552,0,1-0.448,1-1
					C121.185,119.996,120.737,119.549,120.185,119.549z"/>
			</g>
		</g>
	</g>
</g>
</svg>
