<svg width="23" height="23" viewBox="0 0 23 23" fill="none" xmlns="http://www.w3.org/2000/svg">
<path fill-rule="evenodd" clip-rule="evenodd" d="M11.5 0C5.14722 0 0 5.15096 0 11.4979C0 17.5312 4.65459 22.4833 10.5672 22.9585V23H11.5C17.8528 23 23 17.849 23 11.5021C23 5.15559 17.8532 0 11.5 0ZM14.0411 20.796C13.3196 20.9928 12.5644 21.1078 11.786 21.1305H11.5C10.202 21.1305 8.96365 20.8734 7.83318 20.4074C8.92774 16.4636 11.8949 13.6388 15.2911 12.3765C15.8772 15.2169 15.4517 18.2608 14.0411 20.796ZM14.774 10.58C10.8978 11.9761 7.5125 15.1209 6.15228 19.51C3.56825 17.7817 1.86563 14.8373 1.86563 11.4979C1.86563 10.3137 2.07953 9.17921 2.47083 8.131C3.63718 8.71215 4.88435 9.12323 6.16691 9.35184C7.8007 9.65137 9.47463 9.64142 11.1037 9.3477C12.0309 9.18029 12.9362 8.91365 13.8042 8.55834C14.1905 9.2006 14.5155 9.8774 14.774 10.58ZM17.0893 11.8631C17.6494 14.4485 17.4796 17.1884 16.5856 19.6845C19.2378 18.0329 21.0284 15.1283 21.1298 11.8008C19.8114 11.5618 18.4371 11.591 17.0893 11.8631ZM21.0002 9.89112C19.5401 9.68606 18.0386 9.75271 16.572 10.066C16.2831 9.25561 15.9185 8.47494 15.4841 7.73366C16.6891 7.03771 17.7895 6.16178 18.7355 5.1404C19.8924 6.45585 20.6966 8.08895 21.0002 9.89112ZM6.49652 7.51586C5.38234 7.3175 4.30013 6.9599 3.29021 6.45518C4.1588 5.04478 5.38078 3.87492 6.83289 3.06927L6.84407 3.07279L6.84449 3.07292L6.84455 3.07294L6.84457 3.07294C7.00276 3.12273 7.15379 3.17026 7.29922 3.22246C7.35288 3.24295 7.40542 3.26287 7.45677 3.28233L7.45758 3.28264L7.45762 3.28266L7.45765 3.28267C7.69348 3.37208 7.90405 3.45192 8.07996 3.53348L8.13017 3.55858L8.14214 3.56414C8.25322 3.6158 8.41329 3.6921 8.55754 3.76088C8.63419 3.79747 8.70643 3.83189 8.76447 3.85935L8.76662 3.86054C8.81514 3.88659 8.85589 3.90848 8.89388 3.93112C8.92478 3.95117 8.95238 3.96741 8.96719 3.97608C8.99425 3.99192 9.02207 4.00759 9.04499 4.02035C9.06458 4.03124 9.08381 4.04184 9.09822 4.04975L9.10548 4.05374L9.12082 4.06222L9.12276 4.06333C9.14415 4.07566 9.17009 4.09046 9.19967 4.10736C9.2631 4.14354 9.34328 4.18929 9.43132 4.24083C9.49339 4.2772 9.55146 4.31188 9.59883 4.34124C9.63405 4.36311 9.65318 4.3758 9.66046 4.38063L9.66089 4.38091C9.66386 4.3829 9.66456 4.38336 9.66337 4.38245L9.70427 4.41343L9.74969 4.44042C9.81898 4.48154 9.88725 4.52878 9.97245 4.58773L9.97247 4.58775L9.9725 4.58777L9.97287 4.58802C10.0117 4.61494 10.0542 4.6443 10.1018 4.67664L10.1342 4.6986L10.1618 4.71412C10.1617 4.71417 10.163 4.71504 10.1658 4.71689C10.1732 4.72187 10.1911 4.73399 10.2225 4.75642C10.2706 4.79092 10.3288 4.83423 10.3929 4.88238L10.4687 4.93952C10.5077 4.96896 10.5472 4.99878 10.5809 5.02394C10.6253 5.05718 10.6796 5.09754 10.7287 5.13154C11.4445 5.67903 12.0989 6.30418 12.6814 6.99324C12.0616 7.22002 11.4228 7.39461 10.7724 7.51205C9.35449 7.76767 7.90625 7.77458 6.50141 7.51676L6.49897 7.51629L6.49652 7.51586ZM11.5 1.8653C13.7114 1.8653 15.7486 2.61114 17.3745 3.86455C16.522 4.78683 15.5238 5.57228 14.4307 6.18696C13.6792 5.2318 12.8098 4.37184 11.8405 3.63345L11.8171 3.61562L11.7928 3.59941L11.7862 3.59481C11.781 3.59116 11.7741 3.58623 11.7652 3.5798C11.7473 3.5668 11.7252 3.55038 11.6986 3.53047C11.6684 3.5079 11.6382 3.48507 11.6057 3.46055L11.6056 3.4605L11.5989 3.45547C11.5726 3.43557 11.5447 3.41452 11.5142 3.39157C11.4481 3.3419 11.3756 3.28788 11.3091 3.24019C11.2626 3.20685 11.1957 3.15971 11.1275 3.11814L11.0842 3.08818L11.0839 3.08801L11.0839 3.088C10.9951 3.02649 10.8619 2.93422 10.7407 2.85979C10.6274 2.78041 10.4744 2.68998 10.3741 2.63127C10.2771 2.57442 10.1725 2.51476 10.1076 2.47772L10.1071 2.47744L10.058 2.44932C10.0458 2.44221 10.0352 2.43633 10.0311 2.43402L10.0305 2.4337L10.0053 2.41977L9.9968 2.41507C9.98232 2.40711 9.96783 2.39913 9.95278 2.39074C9.93553 2.38115 9.92158 2.37324 9.91141 2.36732L9.9044 2.36241L9.87964 2.34728C9.79005 2.29254 9.6967 2.24254 9.64602 2.2154L9.64494 2.21482L9.62729 2.20537L9.60562 2.1937L9.58337 2.18319C9.53886 2.16218 9.47305 2.13083 9.39834 2.09522C10.0748 1.94469 10.7781 1.8653 11.5 1.8653Z" fill="white"/>
</svg>
